HIERARCHY
ROOT Hips
{
  OFFSET -213.699 104.721 0.752556
  CHANNELS 6 Xposition Yposition Zposition Zrotation Xrotation Yrotation
  JOINT RightUpLeg
  {
    OFFSET -8.9458 -8.66707 0.101652
    CHANNELS 3 Zrotation Xrotation Yrotation
    JOINT RightLeg
    {
      OFFSET 0 -44.4227 1.3727
      CHANNELS 3 Zrotation Xrotation Yrotation
      JOINT RightFoot
      {
        OFFSET 0.253549 -42.0924 -1.46059
        CHANNELS 3 Zrotation Xrotation Yrotation
        JOINT RightToes
        {
          OFFSET 0.04 -4.41509 8.4991
          CHANNELS 3 Zrotation Xrotation Yrotation
          End Site
          {
            OFFSET -0.08 -0.137448 9.77979
          }
        }
      }
    }
  }
  JOINT Spine
  {
    OFFSET 0 11.8905 0
    CHANNELS 3 Zrotation Xrotation Yrotation
    JOINT Spine1
    {
      OFFSET 0 25.6574 0.127663
      CHANNELS 3 Zrotation Xrotation Yrotation
      JOINT HEad
      {
        OFFSET 0 8.73416 0.011341
        CHANNELS 3 Zrotation Xrotation Yrotation
        End Site
        {
          OFFSET -0.29 12.7742 2.51395
        }
      }
      JOINT LeftShoulder1
      {
        OFFSET 8.99 -0.362252 -0.22
        CHANNELS 3 Zrotation Xrotation Yrotation
        JOINT LeftArm
        {
          OFFSET 10.2827 -0.00337999 0.322123
          CHANNELS 3 Zrotation Xrotation Yrotation
          JOINT LeftForeArm
          {
            OFFSET 26.2597 0.099144 -1.42434
            CHANNELS 3 Zrotation Xrotation Yrotation
            JOINT LeftHand
            {
              OFFSET 22.0902 0.085362 1.02216
              CHANNELS 3 Zrotation Xrotation Yrotation
              End Site
              {
                OFFSET 13.419 -0.6 1.50291
              }
            }
          }
        }
      }
      JOINT RightShoulder
      {
        OFFSET -8.99 -0.362252 -0.22
        CHANNELS 3 Zrotation Xrotation Yrotation
        JOINT RightArm
        {
          OFFSET -10.2827 -0.00338 0.322123
          CHANNELS 3 Zrotation Xrotation Yrotation
          JOINT RightForeArm
          {
            OFFSET -26.364 0.099144 -1.42434
            CHANNELS 3 Zrotation Xrotation Yrotation
            JOINT RightHand
            {
              OFFSET -22.0324 0.085362 1.02216
              CHANNELS 3 Zrotation Xrotation Yrotation
              End Site
              {
                OFFSET -13.3284 -0.6 1.50291
              }
            }
          }
        }
      }
    }
  }
  JOINT LeftUpLeg
  {
    OFFSET 8.9458 -8.66707 0.101652
    CHANNELS 3 Zrotation Xrotation Yrotation
    JOINT LeftLeg
    {
      OFFSET 0 -44.4227 1.3727
      CHANNELS 3 Zrotation Xrotation Yrotation
      JOINT LeftFoot
      {
        OFFSET -0.253549 -42.0924 -1.46059
        CHANNELS 3 Zrotation Xrotation Yrotation
        JOINT LeftToes
        {
          OFFSET -0.04 -4.41509 8.4991
          CHANNELS 3 Zrotation Xrotation Yrotation
          End Site
          {
            OFFSET 0.08 -0.047448 9.77979
          }
        }
      }
    }
  }
}
MOTION
Frames:	12
Frame Time:	0.0333333
-233.65 103.837 12.4949 6.78184 1.74998 156.244 3.96112 -4.12567 -2.29732 2.08554 15.0624 -28.5147 -3.27376 -4.04711 -0.0214829 0.0462048 0.000530889 0.662642 -2.70912 12.2607 -2.20521 1.4136 3.56512 -2.65957 18.9139 9.04111 -49.1405 -29.4063 -3.46316 13.2455 -70.8291 -50.4879 -31.1989 -171.275 68.5669 174.08 8.4084 9.0554 -7.47807 28.5743 -1.2392 -7.70284 47.9502 -27.7764 10.9895 7.33022 59.5465 4.85021 -2.25976 9.79454 2.90163 0.383132 1.47496 6.83522 -1.20832 19.0747 19.6982 0.350287 -14.3641 0.102026 -1.31386e-009 8.75249e-006 -1.47851e-008 
-233.128 103.589 11.8818 -3.14998 -6.57596 154.686 -3.71064 -18.7203 -6.51478 2.21343 21.371 -25.7478 1.93819 -5.96219 -0.202017 0.0462048 0.000530889 0.662642 -14.5617 -5.00427 -2.91931 10.0201 9.45027 -4.64448 18.6951 10.238 -48.2115 -29.3587 -3.41147 13.1133 -70.7428 -49.5293 -30.9752 -171.356 68.2374 173.475 8.23418 9.06743 -7.59383 28.8232 -1.29655 -7.83782 48.0829 -27.8415 10.5283 6.91145 59.3624 5.31019 -1.71285 9.83598 2.57695 -6.1305 -12.0259 6.15087 -0.377854 21.1332 19.9046 -1.71494 -12.1357 -0.0163379 -1.31386e-009 8.75249e-006 -1.47851e-008 
-232.935 103.299 12.1192 1.86272 -3.44014 151.695 0.786789 -12.4125 -3.24204 2.44016 19.3479 -25.8318 3.04178 -4.81755 -0.220711 0.0462048 0.000530889 0.662642 -8.05795 2.93176 -2.18844 6.92348 6.48851 -3.61569 18.6903 10.6669 -47.5767 -29.2342 -3.28535 12.791 -71.3995 -47.8326 -31.6021 -171.082 68.6373 172.261 8.72616 9.02884 -7.34745 28.966 -1.29322 -7.81098 48.6799 -27.8711 10.2809 6.73623 59.328 5.36339 -2.59182 9.77306 2.7252 0.166373 -11.7593 13.9578 0.903931 32.4318 11.8366 -3.77581 -12.2675 -0.0917861 -1.31386e-009 8.75249e-006 -1.47851e-008 
-232.881 102.912 12.6564 8.97797 0.557106 148.008 6.30609 -4.2885 0.0684687 1.79842 17.325 -24.831 0.682633 -3.83639 -0.176292 0.0462048 0.000530889 0.662642 0.263028 13.932 -1.42599 2.00637 2.7945 -1.94815 18.6352 10.3731 -46.5155 -28.9837 -3.15969 12.4999 -72.0048 -45.8255 -32.2151 -170.348 69.651 170.323 9.37596 8.96106 -7.28386 29.0589 -1.22753 -7.61321 49.7313 -27.824 10.5294 6.74438 60.1445 5.17765 -3.19052 9.72914 2.8528 7.85171 -9.86243 15.8974 0.705448 44.2143 5.07284 -3.62122 -9.72376 -0.0319448 -1.31386e-009 8.75249e-006 -1.47851e-008 
-232.74 102.348 12.289 5.42924 -1.26067 144.889 4.59062 -10.2721 -0.948513 0.641479 22.2074 -20.1658 -0.972443 -5.9755 -0.144729 0.0462048 0.000530889 0.662642 -3.00715 9.06787 -0.950581 3.72378 4.80281 -1.7956 18.486 10.0445 -44.9199 -28.8763 -3.16022 12.5282 -71.8562 -44.0341 -32.3418 -169.058 71.0331 167.68 9.70342 8.88855 -7.76709 29.2128 -1.16539 -7.41975 50.8226 -27.4686 11.2535 7.13635 61.7385 4.83301 -2.64356 9.77156 2.57468 6.41529 -17.3348 11.747 0.52123 50.248 -0.592103 -1.80786 -5.67855 0.0491161 -1.31386e-009 8.75249e-006 -1.47851e-008 
-232.689 102.082 11.5475 1.37955 -2.37661 141.453 1.97893 -15.1671 -1.32157 -0.461924 25.3879 -16.2501 -1.1007 -7.52454 -0.169115 0.0462048 0.000530889 0.662642 -6.5608 4.11754 -0.516549 5.25205 6.6591 -1.65676 18.3052 10.2454 -43.305 -29.1427 -3.30244 12.8626 -71.2271 -42.6494 -32.2105 -166.965 72.7565 164.333 9.74052 8.8512 -8.1982 29.2416 -1.11753 -7.28134 51.8526 -26.8262 12.0741 7.6581 63.2338 4.58771 -2.33958 9.7964 2.27896 2.7182 -22.5357 5.31485 0.319319 50.5436 -3.50596 0.241763 -6.17707 0.0255937 -1.31386e-009 8.75249e-006 -1.47851e-008 
-232.981 102.389 11.1751 4.57672 -0.289227 137.165 3.72437 -10.0174 1.21027 -1.00227 22.726 -14.6805 -0.781641 -6.29979 -0.153645 0.0462048 0.000530889 0.662642 -2.98204 9.46572 -0.0998612 1.97999 4.87607 -0.561815 17.741 10.9643 -41.7778 -29.5867 -3.48553 13.2597 -70.8449 -41.7751 -32.0009 -164.358 74.4306 160.904 9.63697 8.86452 -8.18286 28.8527 -1.00489 -6.99956 53.0488 -26.0937 12.5608 7.25113 63.7097 5.374 -3.25701 9.73274 2.39253 3.66736 -18.3503 -0.359168 0.257088 46.3698 -1.84506 2.56959 -10.7998 0.131522 -1.31386e-009 8.75249e-006 -1.47851e-008 
-233.301 102.895 10.3772 6.08652 0.768986 131.941 4.08164 -6.73277 3.13087 -1.68975 19.9987 -11.3084 -0.51189 -4.8619 -0.140438 0.0462048 0.000530889 0.662642 -1.2037 11.7796 0.337406 -0.507755 4.37622 0.434039 16.2968 11.7572 -39.6874 -29.8786 -3.63102 13.5844 -70.756 -41.606 -31.4295 -162.7 75.338 158.985 9.42878 8.87655 -8.35716 28.1969 -0.809475 -6.49588 54.2028 -24.8639 12.8155 5.69875 62.7874 7.59219 -4.0633 9.6705 2.73412 3.69994 -14.1389 -5.64461 0.448307 38.2317 2.70648 5.51678 -13.7653 0.355857 -1.31386e-009 8.75249e-006 -1.47851e-008 
-233.479 103.195 8.95284 2.38059 0.425562 126.607 1.32619 -10.1964 3.8945 -2.32412 20.3997 -6.12459 0.0571264 -4.85085 -0.153958 0.0462048 0.000530889 0.662642 -3.81589 7.02221 0.738237 -0.122805 6.06189 0.726616 14.0535 12.2057 -36.5613 -30.0333 -3.74977 13.8686 -70.3497 -42.1234 -30.28 -162.597 75.4232 158.948 9.25611 8.84475 -9.07791 27.7624 -0.641366 -6.03829 54.6249 -21.9208 13.4707 4.29175 60.4222 10.2014 -3.4789 9.70857 2.84017 0.998119 -14.3475 -10.4904 0.630625 29.1962 4.89487 5.83131 -12.568 0.324416 -1.31386e-009 8.75249e-006 -1.47851e-008 
-233.799 103.325 7.67275 1.00554 0.583592 121.362 0.0159698 -11.5019 5.27188 -2.84276 20.1174 -2.09582 1.08464 -4.40866 -0.183336 0.0462048 0.000530889 0.662642 -5.13383 5.54124 0.659615 0.149439 6.41884 0.583938 11.6046 12.279 -32.8122 -30.2703 -3.85473 14.089 -69.5248 -42.9546 -28.9025 -162.984 75.259 159.474 9.21122 8.82358 -9.44988 27.7122 -0.586691 -5.87987 53.8963 -16.6091 14.839 3.54212 56.7383 12.4884 -2.60832 9.77113 2.82107 0.577763 -13.6016 -9.83062 0.848746 23.2654 1.15933 2.14636 -9.32889 0.0797414 -1.31386e-009 8.75249e-006 -1.47851e-008 
-234.388 103.43 6.61723 3.46994 0.742972 116.898 1.04082 -8.73005 7.56233 -3.37029 18.3886 -0.00140427 2.55373 -3.18066 -0.242219 0.0462048 0.000530889 0.662642 -3.97382 9.5343 0.211028 -0.297637 4.70229 0.0399787 9.37455 12.2336 -29.1659 -30.5556 -3.90064 14.1327 -69.1649 -43.7493 -28.0325 -164.04 74.7495 160.866 9.05908 8.88384 -8.87419 27.7856 -0.605502 -5.9303 52.1692 -9.71156 16.4974 2.46821 51.7536 15.0359 -2.9892 9.73538 3.25902 2.20673 -10.7087 -3.34718 1.44438 21.4552 -4.63372 -0.615262 -6.94538 0.0226959 -1.31386e-009 8.75249e-006 -1.47851e-008 
-234.961 103.425 5.23249 3.36646 0.747327 112.935 0.689078 -9.32379 10.9992 -3.59169 18.6843 1.03112 3.68196 -2.96805 -0.29132 0.0462048 0.000530889 0.662642 -4.80519 10.1377 -0.217329 0.514359 4.28123 -0.680232 7.54823 12.1161 -25.8993 -30.5924 -3.84074 13.9594 -70.0453 -44.4972 -28.1335 -166.758 73.0525 164.437 8.91066 8.93996 -8.33548 27.8927 -0.642965 -6.03299 49.7783 -2.37417 18.0194 0.837462 45.187 17.9805 -3.86892 9.65257 4.01228 1.63823 -10.1646 -0.627067 1.45697 21.2525 -2.80001 0.327836 -6.23443 0.0178382 -1.31386e-009 8.75249e-006 -1.47851e-008 
